<svg xmlns="http://www.w3.org/2000/svg" xmlns:xlink="http://www.w3.org/1999/xlink" viewBox="0 0 1924 235.9" style=""><defs><style>.cls-1{fill:none;stroke:#ffea00;stroke-miterlimit:10;stroke-width:4px;}</style></defs><title>heart-pc</title><g id="Layer_2" data-name="Layer 2"><path class="cls-1 TZPBShfh_0" d="M0,126L470,126L475.5,112L486,149.5L498,95L509,140.5L514.5,125.5L593.5,126L605.5,70.5L625,178.5L640,100L650.5,145.5L666,43.5L683.5,194L699,100L703.5,124.5L745.5,125L751.5,152.5L761,93.5L776.5,218L791,73.5L795.5,105L805,28.5L821.5,170.5L826,123.25L875,123.25L882,84L896,178.5L908,57L921.5,165L932,84.5L943,142L952,107L959.5,125.5L999,126L1005.5,147.5L1017.5,93L1031.5,134.5L1035,123.25L1127,123.25L1127.67,148.17L1155.17,148.17"></path><path class="cls-1 TZPBShfh_1" d="M1134.5,168.5L1167,168.5"></path><path class="cls-1 TZPBShfh_2" d="M1171.5,159L1127,159"></path><path class="cls-1 TZPBShfh_3" d="M1100.5,22.5L1110,28.5"></path><path class="cls-1 TZPBShfh_4" d="M1123,7L1130.5,16.5"></path><path class="cls-1 TZPBShfh_5" d="M1149.25,0L1149.25,11.75"></path><path class="cls-1 TZPBShfh_6" d="M1177,7L1171.5,16.5"></path><path class="cls-1 TZPBShfh_7" d="M1198,22.5L1188.5,28.5"></path><path class="cls-1 TZPBShfh_8" d="M471,405V393.5c.94,1.16-22.67-15.85-24-35.5-3.75-32.25,26.41-54.28,49-51.5,31.25,1.5,47,23.5,43.33,53.67-1.33,9.83-7.66,19.5-21.16,32.16l-.84,39.84H499.17l.16-59.17c5.63-6.68,7.43-9,16-22.17a13.56,13.56,0,0,0-.16-11.5c-2.41-5.06-6.59-7.44-12.34-7.66-3.87-.37-6.72,1.5-8.5,5.66-1.82-3.92-5.22-6.29-11.83-5.5q-6.44,1.59-9.83,8.17a8.42,8.42,0,0,0,0,7.33c3.58,6.42,7.79,11.28,11.33,15.67" transform="translate(656 -284)"></path><path class="cls-1 TZPBShfh_9" d="M1173.83,124.49L1254.17,124.49L1260.33,143.33L1265.67,110.17L1277.67,173.83L1287.67,82.33L1299.17,153L1306.83,115.33L1318.17,196.67L1329.17,124.33L1447.5,124.5L1451.33,99L1464.17,156L1472.67,107.5L1477.5,124.17L1923.17,124.33"></path></g><style data-made-with="vivus-instant">.TZPBShfh_0{stroke-dasharray:3019 3021;stroke-dashoffset:3020;animation:TZPBShfh_draw 4287ms ease-in-out 0ms forwards;}.TZPBShfh_1{stroke-dasharray:33 35;stroke-dashoffset:34;animation:TZPBShfh_draw 48ms ease-in-out 4287ms forwards;}.TZPBShfh_2{stroke-dasharray:45 47;stroke-dashoffset:46;animation:TZPBShfh_draw 65ms ease-in-out 4335ms forwards;}.TZPBShfh_3{stroke-dasharray:12 14;stroke-dashoffset:13;animation:TZPBShfh_draw 18ms ease-in-out 4400ms forwards;}.TZPBShfh_4{stroke-dasharray:13 15;stroke-dashoffset:14;animation:TZPBShfh_draw 19ms ease-in-out 4419ms forwards;}.TZPBShfh_5{stroke-dasharray:12 14;stroke-dashoffset:13;animation:TZPBShfh_draw 18ms ease-in-out 4439ms forwards;}.TZPBShfh_6{stroke-dasharray:11 13;stroke-dashoffset:12;animation:TZPBShfh_draw 17ms ease-in-out 4457ms forwards;}.TZPBShfh_7{stroke-dasharray:12 14;stroke-dashoffset:13;animation:TZPBShfh_draw 18ms ease-in-out 4474ms forwards;}.TZPBShfh_8{stroke-dasharray:493 495;stroke-dashoffset:494;animation:TZPBShfh_draw 701ms ease-in-out 4493ms forwards;}.TZPBShfh_9{stroke-dasharray:1271 1273;stroke-dashoffset:1272;animation:TZPBShfh_draw 1805ms ease-in-out 5194ms forwards;}@keyframes TZPBShfh_draw{100%{stroke-dashoffset:0;}}@keyframes TZPBShfh_fade{0%{stroke-opacity:1;}96.42857142857143%{stroke-opacity:1;}100%{stroke-opacity:0;}}</style></svg>